<svg width="41" height="40" viewBox="0 0 41 40" fill="none" xmlns="http://www.w3.org/2000/svg">
<path d="M26.9953 11.342C25.8641 8.6935 23.853 6.51687 21.302 5.18009C18.7511 3.84331 15.8168 3.4284 12.9952 4.0055C10.1736 4.5826 7.63789 6.11631 5.81668 8.34734C3.99546 10.5784 3.0005 13.3698 3 16.2498V26.2498C3 26.9129 3.26339 27.5487 3.73223 28.0176C4.20107 28.4864 4.83696 28.7498 5.5 28.7498H14.0422C15.0176 30.9774 16.6205 32.8728 18.6552 34.2046C20.6898 35.5365 23.0682 36.2471 25.5 36.2498H35.5C36.163 36.2498 36.7989 35.9864 37.2678 35.5176C37.7366 35.0487 38 34.4129 38 33.7498V23.7498C37.9994 20.694 36.8794 17.7442 34.8518 15.458C32.8241 13.1718 30.0292 11.7076 26.9953 11.342ZM5.5 16.2498C5.5 14.272 6.08649 12.3386 7.1853 10.6941C8.28412 9.04962 9.8459 7.7679 11.6732 7.01102C13.5004 6.25414 15.5111 6.05611 17.4509 6.44196C19.3907 6.82782 21.1725 7.78022 22.5711 9.17875C23.9696 10.5773 24.922 12.3591 25.3079 14.2989C25.6937 16.2387 25.4957 18.2494 24.7388 20.0767C23.9819 21.9039 22.7002 23.4657 21.0557 24.5645C19.4112 25.6633 17.4778 26.2498 15.5 26.2498H5.5V16.2498ZM35.5 33.7498H25.5C23.7317 33.7478 21.9955 33.278 20.4675 32.388C18.9395 31.4981 17.6742 30.2197 16.8 28.6826C18.5121 28.505 20.1689 27.9753 21.6666 27.127C23.1642 26.2786 24.4703 25.1298 25.5029 23.7527C26.5356 22.3756 27.2724 20.7999 27.6671 19.1245C28.0619 17.4491 28.106 15.7103 27.7969 14.017C29.9895 14.5345 31.9431 15.7771 33.3412 17.5436C34.7394 19.3101 35.5 21.497 35.5 23.7498V33.7498Z" fill="black" fill-opacity="0.6"/>
</svg>
